<svg xmlns="http://www.w3.org/2000/svg" aria-hidden="true"
  style="position:absolute;width:0;height:0;overflow:hidden">
  <defs>
    <symbol id="icon-menu-close" viewBox="0 0 32 32">
      <path stroke-linejoin="round" stroke-linecap="round" stroke-miterlimit="4" stroke-width="3"
        d="M24 8l-16 16M8 8l16 16"></path>
    </symbol>
    <symbol id="icon-menu-open" viewBox="0 0 32 32">
      <path fill="none" stroke-linejoin="round" stroke-linecap="round" stroke-miterlimit="4"
        stroke-width="3" stroke="#fbfbfb" d="M5.333 8h21.333M5.333 16h10.667M5.333 24h21.333"></path>
    </symbol>
    <symbol id="icon-logo-mobile" viewBox="0 0 32 32">
      <path
        d="M29.082.314h-4.009c-1.237 0-2.24.983-2.24 2.195v3.929c0 1.212 1.003 2.195 2.24 2.195h4.009c1.237 0 2.24-.983 2.24-2.195V2.509c0-1.212-1.003-2.195-2.24-2.195zM6.73 23.04H2.412C1.08 23.04 0 24.023 0 25.235v3.929c0 1.213 1.08 2.195 2.412 2.195H6.73c1.332 0 2.412-.983 2.412-2.195v-3.929c0-1.212-1.08-2.195-2.412-2.195zM6.25 11.582H2.241c-1.237 0-2.24.983-2.24 2.195v3.929c0 1.212 1.003 2.195 2.24 2.195H6.25c1.237 0 2.24-.983 2.24-2.195v-3.929c0-1.212-1.003-2.195-2.24-2.195zM17.766 22.978h-4.009c-1.237 0-2.24.983-2.24 2.195v3.929c0 1.212 1.003 2.195 2.241 2.195h4.009c1.237 0 2.24-.983 2.24-2.195v-3.929c0-1.213-1.003-2.195-2.24-2.195zM6.25.086H2.241c-1.237 0-2.24.983-2.24 2.195V6.21c0 1.212 1.003 2.195 2.24 2.195H6.25c1.237 0 2.24-.983 2.24-2.195V2.281C8.49 1.069 7.487.086 6.25.086zM18.076 11.697h-4.009c-1.237 0-2.24.983-2.24 2.195v3.929c0 1.212 1.003 2.195 2.24 2.195h4.009c1.237 0 2.24-.983 2.24-2.195v-3.929c0-1.212-1.003-2.195-2.24-2.195zM29.333 22.978h-4.01c-1.237 0-2.24.983-2.24 2.195v3.929c0 1.212 1.003 2.195 2.24 2.195h4.009c1.237 0 2.24-.983 2.24-2.195v-3.929c0-1.213-1.003-2.195-2.24-2.195zM17.591.224h-4.009c-1.237 0-2.24.983-2.24 2.195v3.929c0 1.212 1.003 2.195 2.24 2.195h4.009c1.237 0 2.24-.984 2.24-2.196V2.418c0-1.212-1.003-2.195-2.24-2.195zM29.044 11.926h-4.01c-1.237 0-2.24.983-2.24 2.195v3.929c0 1.212 1.003 2.195 2.24 2.195h4.009c1.237 0 2.24-.983 2.24-2.195v-3.929c0-1.212-1.003-2.195-2.24-2.195z" />
    </symbol>
    <symbol id="icon-logo" viewBox="0 0 32 32">
      <path
        d="M29.082.314h-4.01c-1.237 0-2.24.983-2.24 2.195v3.929c0 1.212 1.003 2.195 2.24 2.195h4.01c1.237 0 2.24-.983 2.24-2.195V2.509c0-1.212-1.003-2.195-2.24-2.195zM6.73 23.04H2.412C1.08 23.04 0 24.023 0 25.235v3.929c0 1.212 1.08 2.195 2.412 2.195H6.73c1.332 0 2.412-.983 2.412-2.195v-3.929c0-1.212-1.08-2.195-2.412-2.195zM6.25 11.582H2.241c-1.237 0-2.24.983-2.24 2.195v3.929c0 1.212 1.003 2.195 2.24 2.195H6.25c1.237 0 2.24-.983 2.24-2.195v-3.929c0-1.212-1.003-2.195-2.24-2.195zM17.766 22.978h-4.009c-1.237 0-2.24.983-2.24 2.195v3.929c0 1.212 1.003 2.196 2.241 2.196h4.009c1.237 0 2.24-.983 2.24-2.196v-3.929c0-1.212-1.003-2.195-2.24-2.195zM6.25.086H2.241c-1.237 0-2.24.983-2.24 2.195V6.21c0 1.212 1.003 2.195 2.24 2.195H6.25c1.237 0 2.24-.983 2.24-2.195V2.281C8.49 1.069 7.487.086 6.25.086zM18.076 11.697h-4.009c-1.237 0-2.24.983-2.24 2.195v3.929c0 1.212 1.003 2.195 2.24 2.195h4.009c1.237 0 2.24-.983 2.24-2.195v-3.929c0-1.212-1.003-2.195-2.24-2.195zM29.333 22.978h-4.009c-1.237 0-2.24.983-2.24 2.195v3.929c0 1.212 1.003 2.196 2.24 2.196h4.009c1.237 0 2.24-.983 2.24-2.196v-3.929c0-1.212-1.003-2.195-2.24-2.195zM17.591.224h-4.009c-1.237 0-2.24.983-2.24 2.195v3.929c0 1.212 1.003 2.195 2.24 2.195h4.009c1.237 0 2.24-.984 2.24-2.196V2.418c0-1.212-1.003-2.195-2.24-2.195zM29.044 11.926h-4.009c-1.237 0-2.24.983-2.24 2.195v3.929c0 1.212 1.003 2.195 2.24 2.195h4.009c1.237 0 2.24-.983 2.24-2.195v-3.929c0-1.212-1.003-2.195-2.24-2.195z" />
    </symbol>
    <symbol id="icon-logo-name-mobile" viewBox="0 0 389 32">
      <path
        d="M16.803 32c-10.101 0-16.803-6.272-16.803-16.043 0-9.557 6.606-15.957 16.563-15.957 8.377 0 14.265 4.395 15.127 11.008h-6.941c-0.67-3.797-3.878-5.931-8.186-5.931-6.032 0-9.622 4.352-9.622 10.88 0 7.168 4.021 10.965 9.861 10.965 5.074 0 8.329-2.56 8.665-6.4v-0.427h-9.335v-4.779h15.797v3.925c-0.287 7.637-6.319 12.757-15.127 12.757z"></path>
      <path
        d="M36.115 31.573v-31.147h16.802c8.569 0 11.968 3.712 11.968 9.088 0 4.821-3.83 7.125-8.282 7.68v0.128c2.872 0.64 4.165 2.048 5.362 4.821 1.532 3.499 1.771 7.68 3.734 9.173v0.256h-7.659c-1.627-1.451-2.010-6.016-2.872-8.789-0.862-2.859-2.729-3.2-6.223-3.2h-6.127v11.989h-6.702zM42.817 14.635h9.383c3.925 0 5.744-2.048 5.744-4.693 0-2.901-2.25-4.565-5.744-4.565h-9.383v9.259z"></path>
      <path
        d="M69.336 31.573v-31.147h23.887v4.949h-17.186v7.424h15.51v4.949h-15.51v8.747h17.425v5.077h-24.127z"></path>
      <path
        d="M98.116 31.573v-31.147h23.887v4.949h-17.186v7.424h15.51v4.949h-15.51v8.747h17.425v5.077h-24.127z"></path>
      <path
        d="M126.897 31.573v-31.147h8.138l11.585 17.195c3.542 5.205 3.973 6.912 3.973 6.912h0.143l-0.096-24.107h6.702v31.147h-8.186l-12.015-17.707c-2.729-4.011-3.447-6.443-3.447-6.443h-0.096v24.149h-6.702z"></path>
      <path d="M162.384 31.573v-6.315h6.989v6.315h-6.989z"></path>
      <path
        d="M174.406 31.573v-31.147h6.702v12.459h16.037v-12.459h6.702v31.147h-6.702v-13.739h-16.037v13.739h-6.702z"></path>
      <path
        d="M206.711 31.573l13.404-31.147h7.276l13.595 31.147h-7.181l-2.824-7.168h-14.505l-2.824 7.168h-6.941zM218.391 19.456h10.675l-3.111-7.68c-2.154-5.675-2.202-6.699-2.202-6.699h-0.096c0 0 0 1.024-2.154 6.699l-3.111 7.68z"></path>
      <path
        d="M243.841 31.573v-31.147h16.803c8.57 0 11.967 3.712 11.967 9.088 0 4.821-3.829 7.125-8.281 7.68v0.128c2.873 0.64 4.164 2.048 5.361 4.821 1.533 3.499 1.771 7.68 3.733 9.173v0.256h-7.658c-1.627-1.451-2.011-6.016-2.872-8.789-0.862-2.859-2.729-3.2-6.223-3.2h-6.127v11.989h-6.702zM250.543 14.635h9.382c3.926 0 5.745-2.048 5.745-4.693 0-2.901-2.25-4.565-5.745-4.565h-9.382v9.259z"></path>
      <path
        d="M284.168 31.573l-12.829-31.147h7.181c0 0 6.941 17.451 7.659 19.584 1.149 3.413 1.675 5.163 1.675 5.163h0.096c-0.048 0 0.48-1.749 1.675-5.163 0.768-2.133 7.421-19.584 7.421-19.584h6.941l-12.352 31.147h-7.467z"></path>
      <path
        d="M306.731 31.573v-31.147h23.888v4.949h-17.187v7.424h15.512v4.949h-15.512v8.747h17.427v5.077h-24.128z"></path>
      <path
        d="M347.496 32c-8.904 0-14.267-4.309-14.267-10.709h7.661c-0.096 3.627 2.584 5.632 6.605 5.632 4.261 0 6.269-1.493 6.269-3.712s-1.723-3.157-7.851-4.651c-5.6-1.365-11.728-2.987-11.728-9.387 0-5.077 4.979-9.173 12.829-9.173 8.091 0 13.261 4.053 13.261 9.771h-7.421c-0.048-3.029-2.344-4.693-5.84-4.693-3.397 0-5.648 1.536-5.648 3.584 0 2.432 1.867 3.2 6.749 4.437 7.229 1.792 13.069 2.517 13.069 9.472 0 5.589-5.696 9.429-13.691 9.429z"></path>
      <path d="M372.099 31.573v-26.069h-10.579v-5.077h27.813v5.077h-10.531v26.069h-6.704z"></path>
    </symbol>
    <symbol id="icon-logo-name" viewBox="0 0 354 32">
      <path
        d="M16.837 31.792c-9.116 0-15.164-6.149-15.164-15.728 0-9.37 5.962-15.644 14.948-15.644 7.561 0 12.874 4.309 13.652 10.792h-6.264c-0.605-3.723-3.499-5.814-7.388-5.814-5.444 0-8.684 4.267-8.684 10.667 0 7.027 3.629 10.75 8.9 10.75 4.58 0 7.517-2.51 7.82-6.275v-0.418h-8.425v-4.685h14.257v3.848c-0.259 7.488-5.703 12.507-13.652 12.507z"></path>
      <path
        d="M34.266 31.373v-30.536h15.164c7.733 0 10.801 3.639 10.801 8.91 0 4.727-3.456 6.986-7.474 7.529v0.125c2.592 0.627 3.759 2.008 4.839 4.727 1.382 3.43 1.599 7.529 3.37 8.993v0.251h-6.913c-1.469-1.422-1.814-5.898-2.592-8.617-0.778-2.803-2.462-3.137-5.616-3.137h-5.53v11.754h-6.048zM40.315 14.767h8.468c3.543 0 5.184-2.008 5.184-4.601 0-2.844-2.030-4.476-5.184-4.476h-8.468v9.077z"></path>
      <path
        d="M64.248 31.373v-30.536h21.558v4.852h-15.51v7.278h13.998v4.852h-13.998v8.575h15.726v4.978h-21.774z"></path>
      <path
        d="M90.222 31.373v-30.536h21.558v4.852h-15.51v7.278h13.998v4.852h-13.998v8.575h15.726v4.978h-21.774z"></path>
      <path
        d="M116.197 31.373v-30.536h7.345l10.455 16.858c3.197 5.103 3.586 6.776 3.586 6.776h0.13l-0.086-23.634h6.048v30.536h-7.388l-10.844-17.359c-2.463-3.932-3.111-6.316-3.111-6.316h-0.086v23.676h-6.048z"></path>
      <path d="M148.224 31.373v-6.191h6.308v6.191h-6.308z"></path>
      <path
        d="M159.074 31.373v-30.536h6.048v12.214h14.473v-12.214h6.048v30.536h-6.048v-13.469h-14.473v13.469h-6.048z"></path>
      <path
        d="M188.229 31.373l12.097-30.536h6.568l12.269 30.536h-6.481l-2.549-7.027h-13.090l-2.549 7.027h-6.265zM198.771 19.494h9.634l-2.808-7.529c-1.944-5.563-1.988-6.567-1.988-6.567h-0.085c0 0 0 1.004-1.944 6.567l-2.808 7.529z"></path>
      <path
        d="M221.739 31.373v-30.536h15.164c7.733 0 10.801 3.639 10.801 8.91 0 4.727-3.456 6.986-7.475 7.529v0.125c2.592 0.627 3.759 2.008 4.84 4.727 1.382 3.43 1.598 7.529 3.369 8.993v0.251h-6.912c-1.47-1.422-1.815-5.898-2.594-8.617-0.777-2.803-2.462-3.137-5.615-3.137h-5.53v11.754h-6.048zM227.787 14.767h8.467c3.543 0 5.186-2.008 5.186-4.601 0-2.844-2.031-4.476-5.186-4.476h-8.467v9.077z"></path>
      <path
        d="M258.133 31.373l-11.578-30.536h6.481c0 0 6.264 17.108 6.912 19.2 1.037 3.346 1.513 5.061 1.513 5.061h0.087c-0.043 0 0.431-1.715 1.512-5.061 0.691-2.092 6.696-19.2 6.696-19.2h6.264l-11.145 30.536h-6.741z"></path>
      <path
        d="M278.496 31.373v-30.536h21.559v4.852h-15.509v7.278h13.997v4.852h-13.997v8.575h15.725v4.978h-21.775z"></path>
      <path
        d="M315.287 31.792c-8.036 0-12.873-4.225-12.873-10.499h6.912c-0.087 3.556 2.332 5.522 5.961 5.522 3.846 0 5.66-1.464 5.66-3.639s-1.555-3.095-7.085-4.559c-5.056-1.339-10.584-2.928-10.584-9.203 0-4.978 4.493-8.993 11.578-8.993 7.3 0 11.966 3.974 11.966 9.579h-6.696c-0.043-2.97-2.118-4.601-5.271-4.601-3.068 0-5.099 1.506-5.099 3.514 0 2.384 1.685 3.137 6.093 4.35 6.522 1.757 11.793 2.468 11.793 9.286 0 5.48-5.141 9.244-12.356 9.244z"></path>
      <path d="M337.493 31.373v-25.558h-9.549v-4.978h25.101v4.978h-9.504v25.558h-6.048z"></path>
    </symbol>
  </defs>
</svg>